<svg xmlns="http://www.w3.org/2000/svg" width="838" height="494" viewBox="0 0 838 494">
<rect width="100%" height="100%" fill="white"/>
<text x="419.0" y="28" text-anchor="middle" font-family="Arial, sans-serif" font-size="18" font-weight="700">Pooled GT Nodule Coverage</text>
<text x="419.0" y="484" text-anchor="middle" font-family="Arial, sans-serif" font-size="12">Top-k per scan</text>
<text x="16" y="253.0" text-anchor="middle" font-family="Arial, sans-serif" font-size="12" transform="rotate(-90 16 253.0)">Score threshold</text>
<text x="130.0" y="54" text-anchor="middle" font-family="Arial, sans-serif" font-size="11">1</text>
<text x="202.0" y="54" text-anchor="middle" font-family="Arial, sans-serif" font-size="11">2</text>
<text x="274.0" y="54" text-anchor="middle" font-family="Arial, sans-serif" font-size="11">3</text>
<text x="346.0" y="54" text-anchor="middle" font-family="Arial, sans-serif" font-size="11">4</text>
<text x="418.0" y="54" text-anchor="middle" font-family="Arial, sans-serif" font-size="11">5</text>
<text x="490.0" y="54" text-anchor="middle" font-family="Arial, sans-serif" font-size="11">6</text>
<text x="562.0" y="54" text-anchor="middle" font-family="Arial, sans-serif" font-size="11">7</text>
<text x="634.0" y="54" text-anchor="middle" font-family="Arial, sans-serif" font-size="11">8</text>
<text x="706.0" y="54" text-anchor="middle" font-family="Arial, sans-serif" font-size="11">9</text>
<text x="778.0" y="54" text-anchor="middle" font-family="Arial, sans-serif" font-size="11">10</text>
<text x="82" y="87.0" text-anchor="end" font-family="Arial, sans-serif" font-size="11">0.5</text>
<text x="82" y="121.0" text-anchor="end" font-family="Arial, sans-serif" font-size="11">0.45</text>
<text x="82" y="155.0" text-anchor="end" font-family="Arial, sans-serif" font-size="11">0.4</text>
<text x="82" y="189.0" text-anchor="end" font-family="Arial, sans-serif" font-size="11">0.35</text>
<text x="82" y="223.0" text-anchor="end" font-family="Arial, sans-serif" font-size="11">0.3</text>
<text x="82" y="257.0" text-anchor="end" font-family="Arial, sans-serif" font-size="11">0.25</text>
<text x="82" y="291.0" text-anchor="end" font-family="Arial, sans-serif" font-size="11">0.2</text>
<text x="82" y="325.0" text-anchor="end" font-family="Arial, sans-serif" font-size="11">0.15</text>
<text x="82" y="359.0" text-anchor="end" font-family="Arial, sans-serif" font-size="11">0.1</text>
<text x="82" y="393.0" text-anchor="end" font-family="Arial, sans-serif" font-size="11">0.05</text>
<text x="82" y="427.0" text-anchor="end" font-family="Arial, sans-serif" font-size="11">0</text>
<rect x="94" y="66" width="72" height="34" fill="#316b8b" stroke="white" stroke-width="1"/>
<text x="130.0" y="87.0" text-anchor="middle" font-family="Arial, sans-serif" font-size="11" fill="white">34.9</text>
<rect x="166" y="66" width="72" height="34" fill="#238d8c" stroke="white" stroke-width="1"/>
<text x="202.0" y="87.0" text-anchor="middle" font-family="Arial, sans-serif" font-size="11" fill="white">48.5</text>
<rect x="238" y="66" width="72" height="34" fill="#2e9d83" stroke="white" stroke-width="1"/>
<text x="274.0" y="87.0" text-anchor="middle" font-family="Arial, sans-serif" font-size="11" fill="white">55.1</text>
<rect x="310" y="66" width="72" height="34" fill="#36a47d" stroke="white" stroke-width="1"/>
<text x="346.0" y="87.0" text-anchor="middle" font-family="Arial, sans-serif" font-size="11" fill="black">58.7</text>
<rect x="382" y="66" width="72" height="34" fill="#3ca97a" stroke="white" stroke-width="1"/>
<text x="418.0" y="87.0" text-anchor="middle" font-family="Arial, sans-serif" font-size="11" fill="black">60.9</text>
<rect x="454" y="66" width="72" height="34" fill="#3eab78" stroke="white" stroke-width="1"/>
<text x="490.0" y="87.0" text-anchor="middle" font-family="Arial, sans-serif" font-size="11" fill="black">61.8</text>
<rect x="526" y="66" width="72" height="34" fill="#40ae76" stroke="white" stroke-width="1"/>
<text x="562.0" y="87.0" text-anchor="middle" font-family="Arial, sans-serif" font-size="11" fill="black">62.8</text>
<rect x="598" y="66" width="72" height="34" fill="#41ae76" stroke="white" stroke-width="1"/>
<text x="634.0" y="87.0" text-anchor="middle" font-family="Arial, sans-serif" font-size="11" fill="black">63.2</text>
<rect x="670" y="66" width="72" height="34" fill="#42af76" stroke="white" stroke-width="1"/>
<text x="706.0" y="87.0" text-anchor="middle" font-family="Arial, sans-serif" font-size="11" fill="black">63.3</text>
<rect x="742" y="66" width="72" height="34" fill="#43b075" stroke="white" stroke-width="1"/>
<text x="778.0" y="87.0" text-anchor="middle" font-family="Arial, sans-serif" font-size="11" fill="black">63.7</text>
<rect x="94" y="100" width="72" height="34" fill="#2e718b" stroke="white" stroke-width="1"/>
<text x="130.0" y="121.0" text-anchor="middle" font-family="Arial, sans-serif" font-size="11" fill="white">37.3</text>
<rect x="166" y="100" width="72" height="34" fill="#269688" stroke="white" stroke-width="1"/>
<text x="202.0" y="121.0" text-anchor="middle" font-family="Arial, sans-serif" font-size="11" fill="white">52.1</text>
<rect x="238" y="100" width="72" height="34" fill="#3aa87b" stroke="white" stroke-width="1"/>
<text x="274.0" y="121.0" text-anchor="middle" font-family="Arial, sans-serif" font-size="11" fill="black">60.3</text>
<rect x="310" y="100" width="72" height="34" fill="#46b373" stroke="white" stroke-width="1"/>
<text x="346.0" y="121.0" text-anchor="middle" font-family="Arial, sans-serif" font-size="11" fill="black">65.1</text>
<rect x="382" y="100" width="72" height="34" fill="#4dba6e" stroke="white" stroke-width="1"/>
<text x="418.0" y="121.0" text-anchor="middle" font-family="Arial, sans-serif" font-size="11" fill="black">68.1</text>
<rect x="454" y="100" width="72" height="34" fill="#51bd6b" stroke="white" stroke-width="1"/>
<text x="490.0" y="121.0" text-anchor="middle" font-family="Arial, sans-serif" font-size="11" fill="black">69.6</text>
<rect x="526" y="100" width="72" height="34" fill="#54c069" stroke="white" stroke-width="1"/>
<text x="562.0" y="121.0" text-anchor="middle" font-family="Arial, sans-serif" font-size="11" fill="black">70.9</text>
<rect x="598" y="100" width="72" height="34" fill="#57c267" stroke="white" stroke-width="1"/>
<text x="634.0" y="121.0" text-anchor="middle" font-family="Arial, sans-serif" font-size="11" fill="black">72.0</text>
<rect x="670" y="100" width="72" height="34" fill="#58c366" stroke="white" stroke-width="1"/>
<text x="706.0" y="121.0" text-anchor="middle" font-family="Arial, sans-serif" font-size="11" fill="black">72.5</text>
<rect x="742" y="100" width="72" height="34" fill="#59c565" stroke="white" stroke-width="1"/>
<text x="778.0" y="121.0" text-anchor="middle" font-family="Arial, sans-serif" font-size="11" fill="black">73.1</text>
<rect x="94" y="134" width="72" height="34" fill="#2d748c" stroke="white" stroke-width="1"/>
<text x="130.0" y="155.0" text-anchor="middle" font-family="Arial, sans-serif" font-size="11" fill="white">38.4</text>
<rect x="166" y="134" width="72" height="34" fill="#2b9a85" stroke="white" stroke-width="1"/>
<text x="202.0" y="155.0" text-anchor="middle" font-family="Arial, sans-serif" font-size="11" fill="white">54.1</text>
<rect x="238" y="134" width="72" height="34" fill="#40ae76" stroke="white" stroke-width="1"/>
<text x="274.0" y="155.0" text-anchor="middle" font-family="Arial, sans-serif" font-size="11" fill="black">62.9</text>
<rect x="310" y="134" width="72" height="34" fill="#4dba6e" stroke="white" stroke-width="1"/>
<text x="346.0" y="155.0" text-anchor="middle" font-family="Arial, sans-serif" font-size="11" fill="black">68.1</text>
<rect x="382" y="134" width="72" height="34" fill="#56c267" stroke="white" stroke-width="1"/>
<text x="418.0" y="155.0" text-anchor="middle" font-family="Arial, sans-serif" font-size="11" fill="black">71.9</text>
<rect x="454" y="134" width="72" height="34" fill="#5bc664" stroke="white" stroke-width="1"/>
<text x="490.0" y="155.0" text-anchor="middle" font-family="Arial, sans-serif" font-size="11" fill="black">73.7</text>
<rect x="526" y="134" width="72" height="34" fill="#60c961" stroke="white" stroke-width="1"/>
<text x="562.0" y="155.0" text-anchor="middle" font-family="Arial, sans-serif" font-size="11" fill="black">75.3</text>
<rect x="598" y="134" width="72" height="34" fill="#68cb5e" stroke="white" stroke-width="1"/>
<text x="634.0" y="155.0" text-anchor="middle" font-family="Arial, sans-serif" font-size="11" fill="black">76.6</text>
<rect x="670" y="134" width="72" height="34" fill="#6ccc5d" stroke="white" stroke-width="1"/>
<text x="706.0" y="155.0" text-anchor="middle" font-family="Arial, sans-serif" font-size="11" fill="black">77.2</text>
<rect x="742" y="134" width="72" height="34" fill="#71cd5b" stroke="white" stroke-width="1"/>
<text x="778.0" y="155.0" text-anchor="middle" font-family="Arial, sans-serif" font-size="11" fill="black">78.0</text>
<rect x="94" y="168" width="72" height="34" fill="#2d758c" stroke="white" stroke-width="1"/>
<text x="130.0" y="189.0" text-anchor="middle" font-family="Arial, sans-serif" font-size="11" fill="white">38.9</text>
<rect x="166" y="168" width="72" height="34" fill="#2e9d83" stroke="white" stroke-width="1"/>
<text x="202.0" y="189.0" text-anchor="middle" font-family="Arial, sans-serif" font-size="11" fill="white">55.5</text>
<rect x="238" y="168" width="72" height="34" fill="#45b273" stroke="white" stroke-width="1"/>
<text x="274.0" y="189.0" text-anchor="middle" font-family="Arial, sans-serif" font-size="11" fill="black">64.6</text>
<rect x="310" y="168" width="72" height="34" fill="#54bf69" stroke="white" stroke-width="1"/>
<text x="346.0" y="189.0" text-anchor="middle" font-family="Arial, sans-serif" font-size="11" fill="black">70.7</text>
<rect x="382" y="168" width="72" height="34" fill="#5ec962" stroke="white" stroke-width="1"/>
<text x="418.0" y="189.0" text-anchor="middle" font-family="Arial, sans-serif" font-size="11" fill="black">75.0</text>
<rect x="454" y="168" width="72" height="34" fill="#6bcb5d" stroke="white" stroke-width="1"/>
<text x="490.0" y="189.0" text-anchor="middle" font-family="Arial, sans-serif" font-size="11" fill="black">77.1</text>
<rect x="526" y="168" width="72" height="34" fill="#76ce59" stroke="white" stroke-width="1"/>
<text x="562.0" y="189.0" text-anchor="middle" font-family="Arial, sans-serif" font-size="11" fill="black">78.8</text>
<rect x="598" y="168" width="72" height="34" fill="#80cf55" stroke="white" stroke-width="1"/>
<text x="634.0" y="189.0" text-anchor="middle" font-family="Arial, sans-serif" font-size="11" fill="black">80.4</text>
<rect x="670" y="168" width="72" height="34" fill="#85d053" stroke="white" stroke-width="1"/>
<text x="706.0" y="189.0" text-anchor="middle" font-family="Arial, sans-serif" font-size="11" fill="black">81.2</text>
<rect x="742" y="168" width="72" height="34" fill="#8dd250" stroke="white" stroke-width="1"/>
<text x="778.0" y="189.0" text-anchor="middle" font-family="Arial, sans-serif" font-size="11" fill="black">82.4</text>
<rect x="94" y="202" width="72" height="34" fill="#2c758c" stroke="white" stroke-width="1"/>
<text x="130.0" y="223.0" text-anchor="middle" font-family="Arial, sans-serif" font-size="11" fill="white">39.0</text>
<rect x="166" y="202" width="72" height="34" fill="#2f9e82" stroke="white" stroke-width="1"/>
<text x="202.0" y="223.0" text-anchor="middle" font-family="Arial, sans-serif" font-size="11" fill="white">55.8</text>
<rect x="238" y="202" width="72" height="34" fill="#46b373" stroke="white" stroke-width="1"/>
<text x="274.0" y="223.0" text-anchor="middle" font-family="Arial, sans-serif" font-size="11" fill="black">65.2</text>
<rect x="310" y="202" width="72" height="34" fill="#56c268" stroke="white" stroke-width="1"/>
<text x="346.0" y="223.0" text-anchor="middle" font-family="Arial, sans-serif" font-size="11" fill="black">71.7</text>
<rect x="382" y="202" width="72" height="34" fill="#65ca5f" stroke="white" stroke-width="1"/>
<text x="418.0" y="223.0" text-anchor="middle" font-family="Arial, sans-serif" font-size="11" fill="black">76.1</text>
<rect x="454" y="202" width="72" height="34" fill="#75cd59" stroke="white" stroke-width="1"/>
<text x="490.0" y="223.0" text-anchor="middle" font-family="Arial, sans-serif" font-size="11" fill="black">78.7</text>
<rect x="526" y="202" width="72" height="34" fill="#82d054" stroke="white" stroke-width="1"/>
<text x="562.0" y="223.0" text-anchor="middle" font-family="Arial, sans-serif" font-size="11" fill="black">80.7</text>
<rect x="598" y="202" width="72" height="34" fill="#8dd250" stroke="white" stroke-width="1"/>
<text x="634.0" y="223.0" text-anchor="middle" font-family="Arial, sans-serif" font-size="11" fill="black">82.4</text>
<rect x="670" y="202" width="72" height="34" fill="#93d34e" stroke="white" stroke-width="1"/>
<text x="706.0" y="223.0" text-anchor="middle" font-family="Arial, sans-serif" font-size="11" fill="black">83.4</text>
<rect x="742" y="202" width="72" height="34" fill="#9bd44b" stroke="white" stroke-width="1"/>
<text x="778.0" y="223.0" text-anchor="middle" font-family="Arial, sans-serif" font-size="11" fill="black">84.6</text>
<rect x="94" y="236" width="72" height="34" fill="#2c758c" stroke="white" stroke-width="1"/>
<text x="130.0" y="257.0" text-anchor="middle" font-family="Arial, sans-serif" font-size="11" fill="white">39.0</text>
<rect x="166" y="236" width="72" height="34" fill="#2f9e82" stroke="white" stroke-width="1"/>
<text x="202.0" y="257.0" text-anchor="middle" font-family="Arial, sans-serif" font-size="11" fill="white">55.8</text>
<rect x="238" y="236" width="72" height="34" fill="#46b373" stroke="white" stroke-width="1"/>
<text x="274.0" y="257.0" text-anchor="middle" font-family="Arial, sans-serif" font-size="11" fill="black">65.2</text>
<rect x="310" y="236" width="72" height="34" fill="#56c268" stroke="white" stroke-width="1"/>
<text x="346.0" y="257.0" text-anchor="middle" font-family="Arial, sans-serif" font-size="11" fill="black">71.7</text>
<rect x="382" y="236" width="72" height="34" fill="#65ca5f" stroke="white" stroke-width="1"/>
<text x="418.0" y="257.0" text-anchor="middle" font-family="Arial, sans-serif" font-size="11" fill="black">76.1</text>
<rect x="454" y="236" width="72" height="34" fill="#75cd59" stroke="white" stroke-width="1"/>
<text x="490.0" y="257.0" text-anchor="middle" font-family="Arial, sans-serif" font-size="11" fill="black">78.7</text>
<rect x="526" y="236" width="72" height="34" fill="#83d054" stroke="white" stroke-width="1"/>
<text x="562.0" y="257.0" text-anchor="middle" font-family="Arial, sans-serif" font-size="11" fill="black">80.8</text>
<rect x="598" y="236" width="72" height="34" fill="#8ed250" stroke="white" stroke-width="1"/>
<text x="634.0" y="257.0" text-anchor="middle" font-family="Arial, sans-serif" font-size="11" fill="black">82.5</text>
<rect x="670" y="236" width="72" height="34" fill="#94d34d" stroke="white" stroke-width="1"/>
<text x="706.0" y="257.0" text-anchor="middle" font-family="Arial, sans-serif" font-size="11" fill="black">83.6</text>
<rect x="742" y="236" width="72" height="34" fill="#9cd54a" stroke="white" stroke-width="1"/>
<text x="778.0" y="257.0" text-anchor="middle" font-family="Arial, sans-serif" font-size="11" fill="black">84.7</text>
<rect x="94" y="270" width="72" height="34" fill="#2c758c" stroke="white" stroke-width="1"/>
<text x="130.0" y="291.0" text-anchor="middle" font-family="Arial, sans-serif" font-size="11" fill="white">39.0</text>
<rect x="166" y="270" width="72" height="34" fill="#2f9e82" stroke="white" stroke-width="1"/>
<text x="202.0" y="291.0" text-anchor="middle" font-family="Arial, sans-serif" font-size="11" fill="white">55.8</text>
<rect x="238" y="270" width="72" height="34" fill="#46b373" stroke="white" stroke-width="1"/>
<text x="274.0" y="291.0" text-anchor="middle" font-family="Arial, sans-serif" font-size="11" fill="black">65.2</text>
<rect x="310" y="270" width="72" height="34" fill="#56c268" stroke="white" stroke-width="1"/>
<text x="346.0" y="291.0" text-anchor="middle" font-family="Arial, sans-serif" font-size="11" fill="black">71.7</text>
<rect x="382" y="270" width="72" height="34" fill="#65ca5f" stroke="white" stroke-width="1"/>
<text x="418.0" y="291.0" text-anchor="middle" font-family="Arial, sans-serif" font-size="11" fill="black">76.1</text>
<rect x="454" y="270" width="72" height="34" fill="#75cd59" stroke="white" stroke-width="1"/>
<text x="490.0" y="291.0" text-anchor="middle" font-family="Arial, sans-serif" font-size="11" fill="black">78.7</text>
<rect x="526" y="270" width="72" height="34" fill="#83d054" stroke="white" stroke-width="1"/>
<text x="562.0" y="291.0" text-anchor="middle" font-family="Arial, sans-serif" font-size="11" fill="black">80.8</text>
<rect x="598" y="270" width="72" height="34" fill="#8ed250" stroke="white" stroke-width="1"/>
<text x="634.0" y="291.0" text-anchor="middle" font-family="Arial, sans-serif" font-size="11" fill="black">82.5</text>
<rect x="670" y="270" width="72" height="34" fill="#94d34d" stroke="white" stroke-width="1"/>
<text x="706.0" y="291.0" text-anchor="middle" font-family="Arial, sans-serif" font-size="11" fill="black">83.6</text>
<rect x="742" y="270" width="72" height="34" fill="#9cd54a" stroke="white" stroke-width="1"/>
<text x="778.0" y="291.0" text-anchor="middle" font-family="Arial, sans-serif" font-size="11" fill="black">84.7</text>
<rect x="94" y="304" width="72" height="34" fill="#2c758c" stroke="white" stroke-width="1"/>
<text x="130.0" y="325.0" text-anchor="middle" font-family="Arial, sans-serif" font-size="11" fill="white">39.0</text>
<rect x="166" y="304" width="72" height="34" fill="#2f9e82" stroke="white" stroke-width="1"/>
<text x="202.0" y="325.0" text-anchor="middle" font-family="Arial, sans-serif" font-size="11" fill="white">55.8</text>
<rect x="238" y="304" width="72" height="34" fill="#46b373" stroke="white" stroke-width="1"/>
<text x="274.0" y="325.0" text-anchor="middle" font-family="Arial, sans-serif" font-size="11" fill="black">65.2</text>
<rect x="310" y="304" width="72" height="34" fill="#56c268" stroke="white" stroke-width="1"/>
<text x="346.0" y="325.0" text-anchor="middle" font-family="Arial, sans-serif" font-size="11" fill="black">71.7</text>
<rect x="382" y="304" width="72" height="34" fill="#65ca5f" stroke="white" stroke-width="1"/>
<text x="418.0" y="325.0" text-anchor="middle" font-family="Arial, sans-serif" font-size="11" fill="black">76.1</text>
<rect x="454" y="304" width="72" height="34" fill="#75cd59" stroke="white" stroke-width="1"/>
<text x="490.0" y="325.0" text-anchor="middle" font-family="Arial, sans-serif" font-size="11" fill="black">78.7</text>
<rect x="526" y="304" width="72" height="34" fill="#83d054" stroke="white" stroke-width="1"/>
<text x="562.0" y="325.0" text-anchor="middle" font-family="Arial, sans-serif" font-size="11" fill="black">80.8</text>
<rect x="598" y="304" width="72" height="34" fill="#8ed250" stroke="white" stroke-width="1"/>
<text x="634.0" y="325.0" text-anchor="middle" font-family="Arial, sans-serif" font-size="11" fill="black">82.5</text>
<rect x="670" y="304" width="72" height="34" fill="#94d34d" stroke="white" stroke-width="1"/>
<text x="706.0" y="325.0" text-anchor="middle" font-family="Arial, sans-serif" font-size="11" fill="black">83.6</text>
<rect x="742" y="304" width="72" height="34" fill="#9cd54a" stroke="white" stroke-width="1"/>
<text x="778.0" y="325.0" text-anchor="middle" font-family="Arial, sans-serif" font-size="11" fill="black">84.7</text>
<rect x="94" y="338" width="72" height="34" fill="#2c758c" stroke="white" stroke-width="1"/>
<text x="130.0" y="359.0" text-anchor="middle" font-family="Arial, sans-serif" font-size="11" fill="white">39.0</text>
<rect x="166" y="338" width="72" height="34" fill="#2f9e82" stroke="white" stroke-width="1"/>
<text x="202.0" y="359.0" text-anchor="middle" font-family="Arial, sans-serif" font-size="11" fill="white">55.8</text>
<rect x="238" y="338" width="72" height="34" fill="#46b373" stroke="white" stroke-width="1"/>
<text x="274.0" y="359.0" text-anchor="middle" font-family="Arial, sans-serif" font-size="11" fill="black">65.2</text>
<rect x="310" y="338" width="72" height="34" fill="#56c268" stroke="white" stroke-width="1"/>
<text x="346.0" y="359.0" text-anchor="middle" font-family="Arial, sans-serif" font-size="11" fill="black">71.7</text>
<rect x="382" y="338" width="72" height="34" fill="#65ca5f" stroke="white" stroke-width="1"/>
<text x="418.0" y="359.0" text-anchor="middle" font-family="Arial, sans-serif" font-size="11" fill="black">76.1</text>
<rect x="454" y="338" width="72" height="34" fill="#75cd59" stroke="white" stroke-width="1"/>
<text x="490.0" y="359.0" text-anchor="middle" font-family="Arial, sans-serif" font-size="11" fill="black">78.7</text>
<rect x="526" y="338" width="72" height="34" fill="#83d054" stroke="white" stroke-width="1"/>
<text x="562.0" y="359.0" text-anchor="middle" font-family="Arial, sans-serif" font-size="11" fill="black">80.8</text>
<rect x="598" y="338" width="72" height="34" fill="#8ed250" stroke="white" stroke-width="1"/>
<text x="634.0" y="359.0" text-anchor="middle" font-family="Arial, sans-serif" font-size="11" fill="black">82.5</text>
<rect x="670" y="338" width="72" height="34" fill="#94d34d" stroke="white" stroke-width="1"/>
<text x="706.0" y="359.0" text-anchor="middle" font-family="Arial, sans-serif" font-size="11" fill="black">83.6</text>
<rect x="742" y="338" width="72" height="34" fill="#9cd54a" stroke="white" stroke-width="1"/>
<text x="778.0" y="359.0" text-anchor="middle" font-family="Arial, sans-serif" font-size="11" fill="black">84.7</text>
<rect x="94" y="372" width="72" height="34" fill="#2c758c" stroke="white" stroke-width="1"/>
<text x="130.0" y="393.0" text-anchor="middle" font-family="Arial, sans-serif" font-size="11" fill="white">39.0</text>
<rect x="166" y="372" width="72" height="34" fill="#2f9e82" stroke="white" stroke-width="1"/>
<text x="202.0" y="393.0" text-anchor="middle" font-family="Arial, sans-serif" font-size="11" fill="white">55.8</text>
<rect x="238" y="372" width="72" height="34" fill="#46b373" stroke="white" stroke-width="1"/>
<text x="274.0" y="393.0" text-anchor="middle" font-family="Arial, sans-serif" font-size="11" fill="black">65.2</text>
<rect x="310" y="372" width="72" height="34" fill="#56c268" stroke="white" stroke-width="1"/>
<text x="346.0" y="393.0" text-anchor="middle" font-family="Arial, sans-serif" font-size="11" fill="black">71.7</text>
<rect x="382" y="372" width="72" height="34" fill="#65ca5f" stroke="white" stroke-width="1"/>
<text x="418.0" y="393.0" text-anchor="middle" font-family="Arial, sans-serif" font-size="11" fill="black">76.1</text>
<rect x="454" y="372" width="72" height="34" fill="#75cd59" stroke="white" stroke-width="1"/>
<text x="490.0" y="393.0" text-anchor="middle" font-family="Arial, sans-serif" font-size="11" fill="black">78.7</text>
<rect x="526" y="372" width="72" height="34" fill="#83d054" stroke="white" stroke-width="1"/>
<text x="562.0" y="393.0" text-anchor="middle" font-family="Arial, sans-serif" font-size="11" fill="black">80.8</text>
<rect x="598" y="372" width="72" height="34" fill="#8ed250" stroke="white" stroke-width="1"/>
<text x="634.0" y="393.0" text-anchor="middle" font-family="Arial, sans-serif" font-size="11" fill="black">82.5</text>
<rect x="670" y="372" width="72" height="34" fill="#94d34d" stroke="white" stroke-width="1"/>
<text x="706.0" y="393.0" text-anchor="middle" font-family="Arial, sans-serif" font-size="11" fill="black">83.6</text>
<rect x="742" y="372" width="72" height="34" fill="#9cd54a" stroke="white" stroke-width="1"/>
<text x="778.0" y="393.0" text-anchor="middle" font-family="Arial, sans-serif" font-size="11" fill="black">84.7</text>
<rect x="94" y="406" width="72" height="34" fill="#2c758c" stroke="white" stroke-width="1"/>
<text x="130.0" y="427.0" text-anchor="middle" font-family="Arial, sans-serif" font-size="11" fill="white">39.0</text>
<rect x="166" y="406" width="72" height="34" fill="#2f9e82" stroke="white" stroke-width="1"/>
<text x="202.0" y="427.0" text-anchor="middle" font-family="Arial, sans-serif" font-size="11" fill="white">55.8</text>
<rect x="238" y="406" width="72" height="34" fill="#46b373" stroke="white" stroke-width="1"/>
<text x="274.0" y="427.0" text-anchor="middle" font-family="Arial, sans-serif" font-size="11" fill="black">65.2</text>
<rect x="310" y="406" width="72" height="34" fill="#56c268" stroke="white" stroke-width="1"/>
<text x="346.0" y="427.0" text-anchor="middle" font-family="Arial, sans-serif" font-size="11" fill="black">71.7</text>
<rect x="382" y="406" width="72" height="34" fill="#65ca5f" stroke="white" stroke-width="1"/>
<text x="418.0" y="427.0" text-anchor="middle" font-family="Arial, sans-serif" font-size="11" fill="black">76.1</text>
<rect x="454" y="406" width="72" height="34" fill="#75cd59" stroke="white" stroke-width="1"/>
<text x="490.0" y="427.0" text-anchor="middle" font-family="Arial, sans-serif" font-size="11" fill="black">78.7</text>
<rect x="526" y="406" width="72" height="34" fill="#83d054" stroke="white" stroke-width="1"/>
<text x="562.0" y="427.0" text-anchor="middle" font-family="Arial, sans-serif" font-size="11" fill="black">80.8</text>
<rect x="598" y="406" width="72" height="34" fill="#8ed250" stroke="white" stroke-width="1"/>
<text x="634.0" y="427.0" text-anchor="middle" font-family="Arial, sans-serif" font-size="11" fill="black">82.5</text>
<rect x="670" y="406" width="72" height="34" fill="#94d34d" stroke="white" stroke-width="1"/>
<text x="706.0" y="427.0" text-anchor="middle" font-family="Arial, sans-serif" font-size="11" fill="black">83.6</text>
<rect x="742" y="406" width="72" height="34" fill="#9cd54a" stroke="white" stroke-width="1"/>
<text x="778.0" y="427.0" text-anchor="middle" font-family="Arial, sans-serif" font-size="11" fill="black">84.7</text>
</svg>
